<svg width="81" height="65" viewBox="0 0 81 65" fill="none" xmlns="http://www.w3.org/2000/svg">
<path d="M9.62376 40.099C14.9388 40.099 19.2475 35.7903 19.2475 30.4752C19.2475 25.1601 14.9388 20.8514 9.62376 20.8514C4.30871 20.8514 0 25.1601 0 30.4752C0 35.7903 4.30871 40.099 9.62376 40.099Z" fill="url(#paint0_linear_6_160)"/>
<path d="M58.32 34.2606C53.1231 31.4858 47.9263 28.7109 42.7214 25.9361C44.8547 25.7195 52.2971 24.7171 58.5926 18.4616C64.5433 12.543 65.7703 5.61389 66.0671 3.40845C64.9603 15.6386 67.3663 17.2426 77.0863 15.8953C75.7871 15.9434 68.3688 16.3524 62.9955 22.5517C58.9214 27.2513 58.4162 32.5203 58.32 34.2606Z" fill="url(#paint1_linear_6_160)"/>
<path d="M54.1336 23.2575C51.3588 28.4543 49.1212 32.6808 46.3464 37.8856C46.1298 35.7523 45.1273 28.31 38.8719 22.0144C32.9533 16.0637 26.0242 14.8367 23.8187 14.54C34.0841 16.4406 36.891 10.4258 36.3056 3.52075C36.3537 4.81996 36.7627 12.2383 42.962 17.6115C47.6616 21.6856 52.3933 23.1612 54.1336 23.2575Z" fill="url(#paint2_linear_6_160)"/>
<path d="M51.3267 40.099C56.1988 40.099 60.1484 36.1494 60.1484 31.2772C60.1484 26.4051 56.1988 22.4554 51.3267 22.4554C46.4545 22.4554 42.5049 26.4051 42.5049 31.2772C42.5049 36.1494 46.4545 40.099 51.3267 40.099Z" fill="url(#paint3_linear_6_160)"/>
<path fill-rule="evenodd" clip-rule="evenodd" d="M39.2969 8.82178C39.2969 13.6939 35.3472 17.6436 30.4751 17.6436C25.603 17.6436 21.6533 13.6939 21.6533 8.82178C21.6533 3.94965 25.603 0 30.4751 0C35.3472 0 39.2969 3.94965 39.2969 8.82178ZM30.4752 13.6337C33.1328 13.6337 35.2871 11.4794 35.2871 8.82184C35.2871 6.16431 33.1328 4.00996 30.4752 4.00996C27.8177 4.00996 25.6633 6.16431 25.6633 8.82184C25.6633 11.4794 27.8177 13.6337 30.4752 13.6337Z" fill="url(#paint4_linear_6_160)"/>
<path fill-rule="evenodd" clip-rule="evenodd" d="M80.9999 9.62378C80.9999 14.4959 77.0502 18.4456 72.1781 18.4456C67.306 18.4456 63.3563 14.4959 63.3563 9.62378C63.3563 4.75165 67.306 0.802002 72.1781 0.802002C77.0502 0.802002 80.9999 4.75165 80.9999 9.62378ZM72.1782 14.4357C74.8358 14.4357 76.9901 12.2814 76.9901 9.62384C76.9901 6.96631 74.8358 4.81196 72.1782 4.81196C69.5207 4.81196 67.3663 6.96631 67.3663 9.62384C67.3663 12.2814 69.5207 14.4357 72.1782 14.4357Z" fill="url(#paint5_linear_6_160)"/>
<path d="M2.96165 53.2925V51.6445H10.7266V53.2925H7.83203V61.099H5.85618V53.2925H2.96165ZM14.1716 61.2375C13.4422 61.2375 12.8144 61.0898 12.2881 60.7943C11.7649 60.4958 11.3617 60.0741 11.0786 59.5294C10.7954 58.9816 10.6539 58.3337 10.6539 57.5859C10.6539 56.8565 10.7954 56.2163 11.0786 55.6654C11.3617 55.1145 11.7603 54.6852 12.2742 54.3774C12.7913 54.0696 13.3976 53.9158 14.0931 53.9158C14.5609 53.9158 14.9964 53.9912 15.3996 54.142C15.8058 54.2897 16.1598 54.5128 16.4614 54.8114C16.7661 55.1099 17.003 55.4854 17.1723 55.9378C17.3416 56.3871 17.4262 56.9134 17.4262 57.5166V58.0567H11.4387V56.838H15.575C15.575 56.5548 15.5135 56.304 15.3904 56.0855C15.2673 55.867 15.0964 55.6962 14.8779 55.5731C14.6625 55.4469 14.4117 55.3838 14.1254 55.3838C13.8269 55.3838 13.5622 55.453 13.3314 55.5915C13.1037 55.727 12.9252 55.9101 12.7959 56.1409C12.6666 56.3686 12.6005 56.6226 12.5974 56.9026V58.0614C12.5974 58.4122 12.662 58.7154 12.7913 58.9708C12.9236 59.2262 13.1098 59.4232 13.3499 59.5617C13.5899 59.7002 13.8746 59.7695 14.2039 59.7695C14.4224 59.7695 14.6225 59.7387 14.8041 59.6771C14.9856 59.6156 15.1411 59.5232 15.2703 59.4001C15.3996 59.277 15.4981 59.1262 15.5658 58.9477L17.3847 59.0677C17.2923 59.5048 17.1031 59.8864 16.8169 60.2126C16.5337 60.5358 16.1675 60.7882 15.7181 60.9697C15.2719 61.1482 14.7564 61.2375 14.1716 61.2375ZM21.9134 61.2375C21.1871 61.2375 20.5624 61.0836 20.0392 60.7758C19.519 60.465 19.1189 60.0341 18.8389 59.4832C18.5619 58.9323 18.4234 58.2983 18.4234 57.5812C18.4234 56.8549 18.5634 56.2178 18.8435 55.67C19.1266 55.1191 19.5283 54.6898 20.0484 54.382C20.5685 54.0712 21.1871 53.9158 21.9042 53.9158C22.5228 53.9158 23.0645 54.0281 23.5292 54.2528C23.9939 54.4774 24.3617 54.7929 24.6325 55.1991C24.9034 55.6054 25.0526 56.0824 25.0803 56.6302H23.2245C23.1722 56.2763 23.0337 55.9916 22.809 55.7762C22.5874 55.5577 22.2966 55.4484 21.9365 55.4484C21.6318 55.4484 21.3656 55.5315 21.1379 55.6977C20.9132 55.8608 20.7378 56.0994 20.6116 56.4133C20.4854 56.7272 20.4223 57.1073 20.4223 57.5535C20.4223 58.006 20.4839 58.3907 20.607 58.7077C20.7332 59.0247 20.9101 59.2663 21.1379 59.4325C21.3656 59.5986 21.6318 59.6817 21.9365 59.6817C22.1612 59.6817 22.3628 59.6356 22.5413 59.5432C22.7229 59.4509 22.8721 59.317 22.9891 59.1416C23.1091 58.9631 23.1876 58.7492 23.2245 58.4999H25.0803C25.0496 59.0416 24.9018 59.5186 24.6372 59.931C24.3756 60.3404 24.0139 60.6604 23.5523 60.8913C23.0906 61.1221 22.5444 61.2375 21.9134 61.2375ZM28.3061 56.9996V61.099H26.3395V51.6445H28.2507V55.2592H28.3338C28.4938 54.8406 28.7524 54.5128 29.1094 54.2758C29.4664 54.0358 29.9142 53.9158 30.4528 53.9158C30.9452 53.9158 31.3745 54.0235 31.7408 54.2389C32.1101 54.4513 32.3963 54.7575 32.5994 55.1576C32.8056 55.5546 32.9072 56.0301 32.9041 56.5841V61.099H30.9375V56.9349C30.9406 56.4979 30.8298 56.1578 30.6051 55.9147C30.3835 55.6716 30.0727 55.55 29.6726 55.55C29.4048 55.55 29.1679 55.6069 28.9616 55.7208C28.7585 55.8347 28.5985 56.0009 28.4815 56.2194C28.3677 56.4348 28.3092 56.6949 28.3061 56.9996ZM43.3604 56.0301L41.56 56.1409C41.5292 55.987 41.4631 55.8485 41.3615 55.7254C41.2599 55.5992 41.1261 55.4992 40.9599 55.4253C40.7968 55.3484 40.6013 55.3099 40.3736 55.3099C40.0689 55.3099 39.8119 55.3746 39.6026 55.5038C39.3933 55.63 39.2887 55.7993 39.2887 56.0116C39.2887 56.1809 39.3564 56.324 39.4918 56.441C39.6272 56.5579 39.8596 56.6518 40.1889 56.7226L41.4723 56.9811C42.1617 57.1227 42.6757 57.3504 43.0142 57.6643C43.3527 57.9783 43.522 58.3907 43.522 58.9016C43.522 59.3663 43.3851 59.7741 43.1112 60.1249C42.8403 60.4758 42.4679 60.7497 41.994 60.9467C41.5231 61.1405 40.9799 61.2375 40.3643 61.2375C39.4257 61.2375 38.6778 61.0421 38.1207 60.6512C37.5668 60.2573 37.2421 59.7217 37.1467 59.0447L39.081 58.9431C39.1394 59.2293 39.281 59.4478 39.5057 59.5986C39.7304 59.7464 40.0181 59.8202 40.369 59.8202C40.7137 59.8202 40.9906 59.7541 41.1999 59.6217C41.4123 59.4863 41.52 59.3124 41.5231 59.1001C41.52 58.9216 41.4446 58.7754 41.2969 58.6615C41.1491 58.5445 40.9214 58.4553 40.6136 58.3937L39.3857 58.1491C38.6932 58.0106 38.1777 57.7705 37.8391 57.4289C37.5037 57.0873 37.3359 56.6518 37.3359 56.1224C37.3359 55.6669 37.459 55.2745 37.7053 54.9452C37.9545 54.6159 38.3039 54.362 38.7532 54.1835C39.2056 54.005 39.735 53.9158 40.3413 53.9158C41.2369 53.9158 41.9416 54.105 42.4556 54.4836C42.9727 54.8621 43.2743 55.3776 43.3604 56.0301ZM48.532 54.0081V55.4854H44.2618V54.0081H48.532ZM45.2313 52.3092H47.1979V58.92C47.1979 59.1016 47.2256 59.2432 47.281 59.3447C47.3364 59.4432 47.4133 59.5125 47.5118 59.5525C47.6134 59.5925 47.7303 59.6125 47.8627 59.6125C47.955 59.6125 48.0473 59.6048 48.1396 59.5894C48.232 59.5709 48.3028 59.5571 48.352 59.5479L48.6613 61.0113C48.5628 61.0421 48.4243 61.0775 48.2458 61.1175C48.0673 61.1606 47.8503 61.1867 47.5949 61.1959C47.1209 61.2144 46.7055 61.1513 46.3485 61.0067C45.9945 60.862 45.7191 60.6374 45.5221 60.3327C45.3251 60.028 45.2282 59.6433 45.2313 59.1785V52.3092ZM49.8131 61.099V54.0081H51.7197V55.2453H51.7936C51.9229 54.8052 52.1398 54.4728 52.4445 54.2481C52.7492 54.0204 53.1001 53.9065 53.4971 53.9065C53.5956 53.9065 53.7017 53.9127 53.8156 53.925C53.9295 53.9373 54.0295 53.9542 54.1157 53.9758V55.7208C54.0233 55.6931 53.8956 55.6685 53.7325 55.6469C53.5694 55.6254 53.4201 55.6146 53.2847 55.6146C52.9954 55.6146 52.7369 55.6777 52.5091 55.8039C52.2845 55.927 52.106 56.0994 51.9736 56.3209C51.8444 56.5425 51.7797 56.798 51.7797 57.0873V61.099H49.8131ZM58.0339 61.2375C57.3045 61.2375 56.6767 61.0898 56.1504 60.7943C55.6272 60.4958 55.224 60.0741 54.9409 59.5294C54.6577 58.9816 54.5162 58.3337 54.5162 57.5859C54.5162 56.8565 54.6577 56.2163 54.9409 55.6654C55.224 55.1145 55.6226 54.6852 56.1365 54.3774C56.6536 54.0696 57.2599 53.9158 57.9554 53.9158C58.4232 53.9158 58.8587 53.9912 59.2619 54.142C59.6681 54.2897 60.0221 54.5128 60.3237 54.8114C60.6284 55.1099 60.8654 55.4854 61.0346 55.9378C61.2039 56.3871 61.2885 56.9134 61.2885 57.5166V58.0567H55.301V56.838H59.4373C59.4373 56.5548 59.3758 56.304 59.2527 56.0855C59.1296 55.867 58.9587 55.6962 58.7402 55.5731C58.5248 55.4469 58.274 55.3838 57.9877 55.3838C57.6892 55.3838 57.4245 55.453 57.1937 55.5915C56.966 55.727 56.7875 55.9101 56.6582 56.1409C56.5289 56.3686 56.4628 56.6226 56.4597 56.9026V58.0614C56.4597 58.4122 56.5243 58.7154 56.6536 58.9708C56.7859 59.2262 56.9721 59.4232 57.2122 59.5617C57.4522 59.7002 57.7369 59.7695 58.0662 59.7695C58.2847 59.7695 58.4848 59.7387 58.6664 59.6771C58.848 59.6156 59.0034 59.5232 59.1326 59.4001C59.2619 59.277 59.3604 59.1262 59.4281 58.9477L61.247 59.0677C61.1547 59.5048 60.9654 59.8864 60.6792 60.2126C60.396 60.5358 60.0298 60.7882 59.5804 60.9697C59.1342 61.1482 58.6187 61.2375 58.0339 61.2375ZM64.5385 56.9996V61.099H62.5719V54.0081H64.4462V55.2592H64.5293C64.6863 54.8467 64.9494 54.5205 65.3187 54.2805C65.688 54.0373 66.1358 53.9158 66.6621 53.9158C67.1545 53.9158 67.5839 54.0235 67.9501 54.2389C68.3163 54.4543 68.601 54.7621 68.8042 55.1622C69.0073 55.5592 69.1088 56.0332 69.1088 56.5841V61.099H67.1422V56.9349C67.1453 56.501 67.0345 56.1624 66.8098 55.9193C66.5852 55.6731 66.2759 55.55 65.8819 55.55C65.6172 55.55 65.3833 55.6069 65.1802 55.7208C64.9802 55.8347 64.8232 56.0009 64.7093 56.2194C64.5985 56.4348 64.5416 56.6949 64.5385 56.9996ZM73.2718 61.2144C72.7332 61.2144 72.2454 61.0759 71.8083 60.7989C71.3744 60.5189 71.0297 60.108 70.7742 59.5663C70.5219 59.0216 70.3957 58.3537 70.3957 57.5628C70.3957 56.7503 70.5265 56.0747 70.7881 55.5361C71.0497 54.9945 71.3975 54.5898 71.8314 54.322C72.2684 54.0512 72.747 53.9158 73.2671 53.9158C73.6642 53.9158 73.995 53.9835 74.2597 54.1189C74.5274 54.2512 74.7429 54.4174 74.906 54.6175C75.0722 54.8144 75.1984 55.0083 75.2845 55.1991H75.3445V51.6445H77.3066V61.099H75.3676V59.9633H75.2845C75.1922 60.1603 75.0614 60.3557 74.8921 60.5496C74.7259 60.7405 74.509 60.899 74.2412 61.0251C73.9765 61.1513 73.6534 61.2144 73.2718 61.2144ZM73.895 59.6494C74.212 59.6494 74.4797 59.5633 74.6982 59.3909C74.9198 59.2155 75.0891 58.9708 75.2061 58.6569C75.3261 58.343 75.3861 57.9752 75.3861 57.5535C75.3861 57.1319 75.3276 56.7657 75.2107 56.4548C75.0937 56.144 74.9244 55.9039 74.7029 55.7347C74.4813 55.5654 74.212 55.4807 73.895 55.4807C73.5718 55.4807 73.2994 55.5685 73.0779 55.7439C72.8563 55.9193 72.6885 56.1624 72.5747 56.4733C72.4608 56.7841 72.4039 57.1442 72.4039 57.5535C72.4039 57.9659 72.4608 58.3307 72.5747 58.6476C72.6916 58.9616 72.8593 59.2078 73.0779 59.3863C73.2994 59.5617 73.5718 59.6494 73.895 59.6494Z" fill="url(#paint6_linear_6_160)"/>
<defs>
<linearGradient id="paint0_linear_6_160" x1="0" y1="20.8514" x2="21.8974" y2="24.5938" gradientUnits="userSpaceOnUse">
<stop stop-color="#0126AC"/>
<stop offset="0.593172" stop-color="#00A1E9"/>
</linearGradient>
<linearGradient id="paint1_linear_6_160" x1="42.7214" y1="3.40845" x2="81.5523" y2="10.8005" gradientUnits="userSpaceOnUse">
<stop stop-color="#0126AC"/>
<stop offset="0.593172" stop-color="#00A1E9"/>
</linearGradient>
<linearGradient id="paint2_linear_6_160" x1="23.8187" y1="3.52075" x2="58.5257" y2="8.75333" gradientUnits="userSpaceOnUse">
<stop stop-color="#0126AC"/>
<stop offset="0.593172" stop-color="#00A1E9"/>
</linearGradient>
<linearGradient id="paint3_linear_6_160" x1="42.5049" y1="22.4554" x2="62.5775" y2="25.886" gradientUnits="userSpaceOnUse">
<stop stop-color="#0126AC"/>
<stop offset="0.593172" stop-color="#00A1E9"/>
</linearGradient>
<linearGradient id="paint4_linear_6_160" x1="21.6533" y1="0" x2="41.726" y2="3.43054" gradientUnits="userSpaceOnUse">
<stop stop-color="#0126AC"/>
<stop offset="0.593172" stop-color="#00A1E9"/>
</linearGradient>
<linearGradient id="paint5_linear_6_160" x1="63.3563" y1="0.802002" x2="83.429" y2="4.23254" gradientUnits="userSpaceOnUse">
<stop stop-color="#0126AC"/>
<stop offset="0.593172" stop-color="#00A1E9"/>
</linearGradient>
<linearGradient id="paint6_linear_6_160" x1="35" y1="51" x2="35" y2="61" gradientUnits="userSpaceOnUse">
<stop stop-color="#0126AC"/>
<stop offset="0.608803" stop-color="#00A1E9"/>
<stop offset="1" stop-color="#0126AC"/>
</linearGradient>
</defs>
</svg>
